<?xml version="1.0" encoding="UTF-8" standalone="no"?>
<!-- Created with Inkscape (http://www.inkscape.org/) -->

<svg
   version="1.1"
   id="svg2"
   width="521"
   height="512"
   viewBox="0 0 520.99999 511.99999"
   sodipodi:docname="ori.svg"
   inkscape:version="1.1.2 (0a00cf5339, 2022-02-04)"
   xmlns:inkscape="http://www.inkscape.org/namespaces/inkscape"
   xmlns:sodipodi="http://sodipodi.sourceforge.net/DTD/sodipodi-0.dtd"
   xmlns="http://www.w3.org/2000/svg"
   xmlns:svg="http://www.w3.org/2000/svg">
  <defs
     id="defs6" />
  <sodipodi:namedview
     id="namedview4"
     pagecolor="#ffffff"
     bordercolor="#000000"
     borderopacity="0.25"
     inkscape:showpageshadow="2"
     inkscape:pageopacity="0.0"
     inkscape:pagecheckerboard="0"
     inkscape:deskcolor="#d1d1d1"
     showgrid="false"
     inkscape:zoom="0.88148149"
     inkscape:cx="259.22269"
     inkscape:cy="266.02941"
     inkscape:window-width="1316"
     inkscape:window-height="704"
     inkscape:window-x="0"
     inkscape:window-y="0"
     inkscape:window-maximized="1"
     inkscape:current-layer="g8"
     inkscape:pageshadow="2" />
  <g
     inkscape:groupmode="layer"
     inkscape:label="Image"
     id="g8"
     transform="translate(-148.80382,52.248125)">
    <path
       style="fill:#ffffff;fill-opacity:1;stroke-width:0.613308"
       d="M 409.30382,-52.248123 187.60159,75.75187 V 331.75186 L 409.30382,459.75187 631.00605,331.75186 V 75.75187 Z"
       id="path7019" />
    <path
       style="fill:#000000;fill-opacity:1;stroke-width:0.582164"
       d="M 409.30383,-39.248121 198.85991,82.251871 V 325.25187 L 409.30383,446.75188 619.74772,325.25187 V 82.251871 Z"
       id="path9969" />
    <path
       id="path1132"
       style="fill:#ff1744;fill-opacity:1;stroke-width:0.464705"
       d="m 536.58496,277.23795 -2.52262,1.45632 v 0.43056 l -165.08791,95.31394 40.32939,23.28416 127.28114,-73.48609 z"
       sodipodi:nodetypes="ccccccc" />
    <path
       id="path1134"
       style="fill:#00c853;fill-opacity:1;stroke-width:0.464705"
       d="M 409.30382,9.7807995 282.02272,83.266891 V 130.26662 C 338.41362,97.1808 399.49919,61.836163 449.53444,33.00755 Z"
       sodipodi:nodetypes="ccccc" />
    <path
       id="path1136"
       style="fill:#ffd600;fill-opacity:1;stroke-width:0.464705"
       d="m 282.02272,83.266891 -40.70255,23.499439 0,147.04732 40.70255,23.4243 V 130.26662 Z"
       sodipodi:nodetypes="cccccc" />
    <path
       id="path1138"
       style="fill:#2196f3;fill-opacity:1;stroke-width:0.464705"
       d="M 449.53444,33.00755 409.05865,56.290159 577.28746,153.63351 V 106.76633 Z"
       sodipodi:nodetypes="ccccc" />
    <path
       id="path1140"
       style="fill:#aa00ff;fill-opacity:1;stroke-width:0.464705"
       d="m 536.58496,130.00656 v 194.23028 l 40.7025,-23.49944 V 153.63351 Z"
       sodipodi:nodetypes="ccccc" />
    <path
       id="path1142"
       style="fill:#ff6d00;fill-opacity:1;stroke-width:0.464705"
       d="m 241.32017,253.81365 v 46.92375 l 127.65426,73.70139 40.57456,-23.46955 z"
       sodipodi:nodetypes="ccccc" />
    <path
       id="path1144"
       style="fill:#ff1744;fill-opacity:1;stroke-width:0.327855"
       d="M 332.08594 318.66406 L 232.04688 376.42188 L 260.5 392.84961 L 345.32812 343.875 L 332.08594 318.66406 z "
       transform="translate(148.80382,-52.248125)" />
    <path
       style="fill:#00c853;fill-opacity:1;stroke-width:0.327855"
       d="m 409.30382,66.9029 -89.79838,51.84534 v 33.15888 c 39.78449,-23.34248 82.88106,-48.27851 118.1816,-68.617462 z"
       id="path1146"
       sodipodi:nodetypes="ccccc" />
    <path
       id="path1148"
       style="fill:#ffd600;fill-opacity:1;stroke-width:0.327855"
       d="m 319.50544,118.74824 -28.71614,16.57914 v 103.74369 c 16.26622,9.39133 32.52933,18.76125 48.79338,28.1491 v -0.0316 L 319.50544,255.59718 V 151.90712 Z" />
    <path
       id="path1150"
       style="fill:#2196f3;fill-opacity:1;stroke-width:0.327855"
       d="M 288.88281 135.53711 C 253.58232 155.87603 210.48557 180.81188 170.70117 204.1543 L 260.5 152.31055 L 309.21289 180.43359 L 309.29297 180.38672 L 332.00195 193.49805 L 345.32617 168.12695 L 288.88281 135.53711 z "
       transform="translate(148.80382,-52.248125)" />
    <path
       style="fill:#ff6d00;fill-opacity:1;stroke-width:0.327855"
       d="m 290.7893,239.07107 v 33.10527 l 90.06162,51.99722 116.47157,-67.24515 v -0.30376 l -88.01867,50.81789 C 369.79774,284.69814 330.29845,261.88176 290.7893,239.07107 Z"
       id="path1154" />
    <circle
       style="fill:#ffffff;fill-opacity:1;stroke-width:0.544806"
       id="circle1158"
       cx="367.08298"
       cy="225.19928"
       r="19.50251" />
    <circle
       style="fill:#ffffff;fill-opacity:1;stroke-width:0.544806"
       id="circle1162"
       cx="503.25443"
       cy="225.61432"
       r="19.50251" />
    <circle
       style="fill:#ffffff;fill-opacity:1;stroke-width:0.544806"
       id="circle1166"
       cx="449.18796"
       cy="164.91992"
       r="19.50251" />
    <circle
       style="fill:#ffffff;fill-opacity:1;stroke-width:0.544806"
       id="circle1170"
       cx="409.3038"
       cy="203.75188"
       r="19.50251" />
    <circle
       style="fill:#ffffff;fill-opacity:1;stroke-width:0.544806"
       id="circle1174"
       cx="362.96988"
       cy="158.16486"
       r="19.50251" />
    <circle
       style="fill:#ffffff;fill-opacity:1;stroke-width:0.544806"
       id="circle1178"
       cx="404.18436"
       cy="262.47937"
       r="19.50251" />
    <path
       style="color:#000000;fill:#ffffff;fill-rule:evenodd;-inkscape-stroke:none;fill-opacity:1"
       d="m 366.39453,156.5332 -4.94726,4.95117 47.4082,47.36133 43.88476,-38.35547 45.48438,53.81446 -97.68945,30.68945 -28.44336,-34.57422 -5.40625,4.44727 31.44336,38.21875 112.23828,-35.25977 -56.875,-67.28906 -44.31836,38.73437 z"
       id="path1128" />
  </g>
</svg>
