<?xml version="1.0" encoding="UTF-8" standalone="no"?>
<!-- Created with Inkscape (http://www.inkscape.org/) -->

<svg
   id="svg2"
   version="1.1"
   inkscape:version="1.1.2 (0a00cf5339, 2022-02-04)"
   width="700"
   height="484.32736"
   sodipodi:docname="its.svg"
   xmlns:inkscape="http://www.inkscape.org/namespaces/inkscape"
   xmlns:sodipodi="http://sodipodi.sourceforge.net/DTD/sodipodi-0.dtd"
   xmlns:xlink="http://www.w3.org/1999/xlink"
   xmlns="http://www.w3.org/2000/svg"
   xmlns:svg="http://www.w3.org/2000/svg"
   xmlns:rdf="http://www.w3.org/1999/02/22-rdf-syntax-ns#"
   xmlns:cc="http://creativecommons.org/ns#"
   xmlns:dc="http://purl.org/dc/elements/1.1/">
  <metadata
     id="metadata8">
    <rdf:RDF>
      <cc:Work
         rdf:about="">
        <dc:format>image/svg+xml</dc:format>
        <dc:type
           rdf:resource="http://purl.org/dc/dcmitype/StillImage" />
      </cc:Work>
    </rdf:RDF>
  </metadata>
  <defs
     id="defs6">
    <linearGradient
       id="linearGradient3921">
      <stop
         style="stop-color:#0c1c4f;stop-opacity:1;"
         offset="0"
         id="stop3923" />
      <stop
         style="stop-color:#33f0ff;stop-opacity:1"
         offset="1"
         id="stop3925" />
    </linearGradient>
    <linearGradient
       id="linearGradient3905">
      <stop
         style="stop-color:#6e6e6e;stop-opacity:1;"
         offset="0"
         id="stop3907" />
      <stop
         style="stop-color:#6e6e6e;stop-opacity:0;"
         offset="1"
         id="stop3909" />
    </linearGradient>
    <linearGradient
       inkscape:collect="always"
       id="linearGradient3897">
      <stop
         style="stop-color:#6e6e6e;stop-opacity:1;"
         offset="0"
         id="stop3899" />
      <stop
         style="stop-color:#0c1c4f;stop-opacity:1"
         offset="1"
         id="stop3901" />
    </linearGradient>
    <linearGradient
       inkscape:collect="always"
       xlink:href="#linearGradient3897"
       id="linearGradient3903"
       x1="539.5174"
       y1="225.80666"
       x2="650.96356"
       y2="69.482018"
       gradientUnits="userSpaceOnUse"
       gradientTransform="matrix(2.1086362,0,0,2.1086362,-450.5233,-76.240378)" />
    <linearGradient
       inkscape:collect="always"
       xlink:href="#linearGradient3921"
       id="linearGradient3927"
       x1="220.72603"
       y1="207.35532"
       x2="368.33676"
       y2="51.03067"
       gradientUnits="userSpaceOnUse" />
    <linearGradient
       inkscape:collect="always"
       xlink:href="#linearGradient3921"
       id="linearGradient3942"
       gradientUnits="userSpaceOnUse"
       x1="220.72603"
       y1="207.35532"
       x2="368.33676"
       y2="51.03067" />
    <linearGradient
       inkscape:collect="always"
       xlink:href="#linearGradient3897"
       id="linearGradient3944"
       gradientUnits="userSpaceOnUse"
       gradientTransform="matrix(2.1086362,0,0,2.1086362,-450.5233,-76.240378)"
       x1="539.5174"
       y1="225.80666"
       x2="650.96356"
       y2="69.482018" />
  </defs>
  <sodipodi:namedview
     pagecolor="#ffffff"
     bordercolor="#666666"
     borderopacity="1"
     objecttolerance="10"
     gridtolerance="10"
     guidetolerance="10"
     inkscape:pageopacity="0"
     inkscape:pageshadow="2"
     inkscape:window-width="1324"
     inkscape:window-height="704"
     id="namedview4"
     showgrid="false"
     showguides="true"
     inkscape:guide-bbox="true"
     inkscape:zoom="0.40211156"
     inkscape:cx="483.69661"
     inkscape:cy="401.62984"
     inkscape:window-x="0"
     inkscape:window-y="0"
     inkscape:window-maximized="1"
     inkscape:current-layer="svg2"
     fit-margin-top="0"
     fit-margin-left="0"
     fit-margin-right="0"
     fit-margin-bottom="0"
     inkscape:pagecheckerboard="0" />
  <g
     id="g3931">
    <g
       transform="matrix(2.1086362,0,0,2.1086362,-281.83241,-76.240378)"
       style="fill:#283176;fill-opacity:1;stroke:#ffffff;stroke-width:2.5;stroke-miterlimit:4;stroke-dasharray:none;stroke-opacity:1"
       id="g3778">
      <path
         inkscape:connector-curvature="0"
         style="color:#000000;display:inline;overflow:visible;visibility:visible;fill:#283176;fill-opacity:1;fill-rule:evenodd;stroke:#ffffff;stroke-width:2.5;stroke-miterlimit:4;stroke-dasharray:none;stroke-opacity:1;marker:none;enable-background:accumulate"
         d="m 248.5,37.40625 c -62.73825,0 -113.59375,50.855501 -113.59375,113.59375 0,62.73825 50.8555,113.59375 113.59375,113.59375 8.56628,0 16.91337,-0.95287 24.9375,-2.75 C 219.33946,250.48343 178.90625,205.17629 178.90625,151 c 0,-54.176289 40.43321,-99.483431 94.53125,-110.84375 -8.02413,-1.797133 -16.37122,-2.75 -24.9375,-2.75 z"
         id="path2999" />
      <path
         id="path3772"
         d="m 350.78063,37.40625 c 62.73825,0 113.59375,50.855501 113.59375,113.59375 0,62.73825 -50.8555,113.59375 -113.59375,113.59375 -8.56628,0 -16.91337,-0.95287 -24.9375,-2.75 54.09804,-11.36032 94.53125,-56.66746 94.53125,-110.84375 0,-54.176289 -40.43321,-99.483431 -94.53125,-110.84375 8.02413,-1.797133 16.37122,-2.75 24.9375,-2.75 z"
         style="color:#000000;display:inline;overflow:visible;visibility:visible;fill:#283176;fill-opacity:1;fill-rule:evenodd;stroke:#ffffff;stroke-width:2.5;stroke-miterlimit:4;stroke-dasharray:none;stroke-opacity:1;marker:none;enable-background:accumulate"
         inkscape:connector-curvature="0" />
    </g>
    <ellipse
       transform="matrix(2.1086362,0,0,2.1086362,-282.67167,-76.240378)"
       id="path3776"
       style="color:#000000;display:inline;overflow:visible;visibility:visible;fill:url(#linearGradient3942);fill-opacity:1;fill-rule:evenodd;stroke:#ffffff;stroke-width:2.5;stroke-miterlimit:4;stroke-dasharray:none;stroke-opacity:1;marker:none;enable-background:accumulate"
       cx="300.03833"
       cy="150.76228"
       rx="100.94967"
       ry="107.27366" />
    <path
       sodipodi:nodetypes="cccccsssccscsccsccsccccsccccccccccccccccccccccccccccccccsccc"
       inkscape:connector-curvature="0"
       id="path3795"
       d="m 339.68809,120.9171 c -26.70591,57.53703 -86.63818,84.17212 -140.75146,84.14776 v 15.33434 c 8.68275,-1.3584 16.37253,-3.41249 20.95457,-1.03755 3.8187,2.25329 6.36992,5.35182 7.64381,9.35707 1.27391,4.00561 1.91095,13.60247 1.91095,20.36152 v 85.07269 c 0,10.76467 -4.46658,17.62103 -13.37666,20.6251 -3.86987,1.30469 -9.65131,2.29849 -17.13267,3.03116 v 19.04362 c 3.79148,-0.0569 7.613,-0.13179 11.39982,-0.13179 h 22.93141 c 8.2737,-0.24987 17.14037,-0.32947 26.68743,-0.32947 8.91004,0 17.20472,0.0795 24.84237,0.32947 h 23.85395 c 7.63708,0.24985 15.29379,0.39537 22.93141,0.39537 h 24.77648 v -17.85751 c -28.0037,0 -46.44162,-1.47679 -55.3517,-4.48085 -8.91034,-3.00407 -13.37691,-9.86043 -13.37666,-20.6251 0,-40.77638 -1.9e-4,-81.59041 0,-122.36679 -0.0308,-1.87085 0.019,-9.1926 0,-14.1015 h 11.79518 v 110.37392 c 0,12.5568 5.36094,26.73695 13.77203,33.27691 15.74426,11.24302 38.7472,11.00036 66.09257,-2.5699 v 48.69632 c 0,0 69.7972,3.74884 100.95095,-8.56634 18.59784,-6.82268 34.43199,-22.10867 39.14156,-41.71146 5.43073,-19.08984 -0.0793,-50.30166 -15.48529,-62.27066 -19.58228,-15.32769 -36.83883,-26.61339 -58.44876,-38.15313 -13.80202,-8.26815 -29.34731,-22.93895 -20.03205,-37.23061 10.42698,-10.39933 20.28477,-9.99713 32.61797,-4.08548 8.58384,5.55413 16.89454,19.03291 23.39268,36.83524 3.50413,0 18.17529,0.0658 21.67942,0.0658 v -54.42917 c -9.19722,-4.3521 -16.64446,-5.69515 -26.62153,-7.64381 -9.65362,-2.0304 -19.78774,-2.95863 -29.85039,-2.63579 l 0.19758,-0.26358 h -91.00082 c -1.02187,-17.91293 -0.18029,-33.96239 4.21727,-46.45589 h -20.36152 z m 16.14425,80.32586 h 23.98574 c -9.7396,16.85876 -12.14942,40.56651 -2.24043,55.61528 8.2093,13.40742 22.1981,23.76426 29.32322,29.5209 19.42889,12.29932 29.88056,18.75063 54.29738,33.80407 6.15212,4.68504 16.07776,29.66961 -2.96527,37.56009 -7.65017,2.66072 -12.9975,2.53179 -30.50933,-2.96527 -13.0459,-9.59044 -23.01918,-22.07325 -25.6331,-43.8201 h -22.40426 c -0.008,-0.008 -0.0567,0.008 -0.0658,0 h -0.32948 v 0.65895 l -0.19737,11.24721 c -20.53927,2.98182 -23.26112,-6.56393 -23.26112,-22.9106 v -5.1398 -93.57073 z"
       style="font-style:normal;font-variant:normal;font-weight:normal;font-stretch:normal;font-size:32px;line-height:125%;font-family:NanumMyeongjo;-inkscape-font-specification:NanumMyeongjo;text-align:start;letter-spacing:0px;word-spacing:0px;text-anchor:start;fill:#ffffff;fill-opacity:1;stroke:none" />
    <path
       inkscape:connector-curvature="0"
       id="path3890"
       d="m 247.76474,68.662462 c -32.73283,0 -59.30539,26.57258 -59.30539,59.305388 0,32.7328 26.57256,59.30539 59.30539,59.30539 32.7328,0 59.30539,-26.57259 59.30539,-59.30539 0,-32.732808 -26.57259,-59.305388 -59.30539,-59.305388 z"
       style="color:#000000;font-style:normal;font-variant:normal;font-weight:normal;font-stretch:normal;font-size:medium;line-height:normal;font-family:Sans;-inkscape-font-specification:Sans;text-indent:0;text-align:start;text-decoration:none;text-decoration-line:none;letter-spacing:normal;word-spacing:normal;text-transform:none;writing-mode:lr-tb;direction:ltr;baseline-shift:baseline;text-anchor:start;display:inline;overflow:visible;visibility:visible;fill:url(#linearGradient3944);fill-opacity:1;stroke:none;stroke-width:1.5;marker:none;enable-background:accumulate" />
    <path
       inkscape:connector-curvature="0"
       id="path3881"
       d="m 247.76474,71.825412 c 31.02341,0 56.14244,25.11902 56.14244,56.142438 0,31.02342 -25.11903,56.14244 -56.14244,56.14244 -31.02344,0 -56.14244,-25.11902 -56.14244,-56.14244 0,-31.023418 25.119,-56.142438 56.14244,-56.142438 z"
       style="color:#000000;font-style:normal;font-variant:normal;font-weight:normal;font-stretch:normal;font-size:medium;line-height:normal;font-family:Sans;-inkscape-font-specification:Sans;text-indent:0;text-align:start;text-decoration:none;text-decoration-line:none;letter-spacing:normal;word-spacing:normal;text-transform:none;writing-mode:lr-tb;direction:ltr;baseline-shift:baseline;text-anchor:start;display:inline;overflow:visible;visibility:visible;fill:#ffffff;fill-opacity:1;stroke:none;stroke-width:1.5;marker:none;enable-background:accumulate" />
    <path
       inkscape:connector-curvature="0"
       style="color:#000000;font-style:normal;font-variant:normal;font-weight:normal;font-stretch:normal;font-size:medium;line-height:normal;font-family:Sans;-inkscape-font-specification:Sans;text-indent:0;text-align:start;text-decoration:none;text-decoration-line:none;letter-spacing:normal;word-spacing:normal;text-transform:none;writing-mode:lr-tb;direction:ltr;baseline-shift:baseline;text-anchor:start;display:inline;overflow:visible;visibility:visible;fill:#001588;fill-opacity:1;stroke:none;stroke-width:1.5;marker:none;enable-background:accumulate"
       d="m 247.76474,75.620732 c 28.92618,0 52.34712,23.42093 52.34712,52.347118 0,28.92619 -23.42094,52.34713 -52.34712,52.34713 -28.92621,0 -52.34713,-23.42094 -52.34713,-52.34713 0,-28.926188 23.42092,-52.347118 52.34713,-52.347118 z"
       id="path3892" />
    <path
       inkscape:connector-curvature="0"
       id="path3875"
       d="m 247.76474,75.647322 c -22.22054,0 -41.16024,13.82262 -48.76221,33.342808 0.0388,0.24448 0.0985,0.50626 0.19758,0.79073 0.2892,0.82966 0.35962,2.16729 0.19758,3.03117 -0.17291,0.9218 -0.0529,1.85898 0.26357,2.24042 0.38751,0.46697 0.40676,1.22342 0.0658,2.70169 -0.60631,2.6298 -0.6616,12.54724 -0.0658,12.9154 0.8605,0.53183 3.34799,-5.501 3.36064,-8.17096 0.004,-0.84326 0.1261,-1.51558 0.32948,-1.51558 0.45696,0 6.76606,-6.19094 7.44612,-7.31434 0.27157,-0.44862 1.48136,-1.07393 2.70169,-1.38379 2.16127,-0.54875 2.24043,-0.52346 2.24043,0.52716 0,0.59325 0.20179,1.15753 0.46126,1.3179 0.25947,0.16036 0.46126,1.48764 0.46126,2.89937 0,2.73451 0.4758,3.1376 1.97685,1.77916 0.7908,-0.71566 0.89803,-0.68488 1.18611,0.0659 0.17101,0.44536 0.20201,3.1214 0.0658,5.99644 -0.21633,4.56412 -0.18282,5.44891 0.59305,6.72128 0.48874,0.80148 0.92158,2.12656 0.92253,2.96527 0.001,1.16295 0.4918,2.06859 2.10864,3.756 1.16605,1.21694 2.2381,2.04506 2.37221,1.91096 0.13411,-0.13411 -0.0892,-1.05377 -0.46126,-2.10864 -0.37226,-1.05489 -0.53644,-2.03346 -0.39537,-2.17453 0.65654,-0.65655 -0.4864,-2.81074 -1.97685,-3.69011 -0.98511,-0.58122 -1.64737,-1.3522 -1.64737,-1.91096 0,-0.51036 -0.24119,-1.37665 -0.52716,-1.91095 -0.37293,-0.69924 -0.36722,-1.25529 0,-1.97684 0.2806,-0.55136 0.71702,-1.55854 0.98842,-2.30633 0.46266,-1.27459 0.58625,-1.31482 1.3838,-0.59305 0.46788,0.42344 1.07989,0.72484 1.38379,0.72484 0.30392,0 0.52716,0.38156 0.52716,0.85664 0,0.47508 0.55065,1.17552 1.18611,1.51558 0.63541,0.34008 1.17398,1.03446 1.252,1.58148 0.13305,0.93194 0.27701,0.90944 1.77916,-0.52716 0.88206,-0.84326 1.77473,-1.51558 1.97716,-1.51558 1.09044,0 1.84506,-1.65431 1.84506,-4.01959 0,-2.15527 -0.24285,-2.76418 -1.44969,-4.08548 -2.21348,-2.42347 -2.22174,-3.1476 -0.26358,-4.94212 1.83945,-1.68573 3.2988,-2.04815 3.75601,-0.85663 0.45717,1.19131 0.34432,1.51679 -0.65895,1.77916 -1.12105,0.29316 -1.2264,1.18672 -0.19758,1.58148 0.90804,0.34845 2.16836,-1.22928 1.84506,-2.30632 -0.12968,-0.43222 0.0605,-0.90745 0.39537,-1.12022 1.32429,-0.84133 5.83344,-2.56809 6.78717,-2.5699 0.55605,-0.001 1.10271,-0.26975 1.252,-0.65894 0.1493,-0.38918 0.61417,-0.72485 0.98843,-0.72485 0.70734,0 6.3918,-6.3347 6.3918,-7.11665 0,-0.24468 -0.23593,-0.46126 -0.52716,-0.46126 -0.37833,0 -0.33259,-0.17879 0.0658,-0.65895 0.44222,-0.532858 0.28108,-1.108168 -0.72484,-2.701688 -1.39864,-2.21556 -1.45505,-2.04075 1.51558,-4.08548 0.77161,-0.53111 0.66643,-0.56404 -0.98842,-0.39537 -1.18835,0.12112 -2.13557,-0.0669 -2.50401,-0.46126 -0.81123,-0.86845 -0.74829,-0.92899 0.72484,-1.51559 0.71352,-0.28412 1.75734,-0.7251 2.37222,-0.98842 0.98847,-0.42333 1.14012,-0.3708 0.92253,0.46126 -0.20686,0.79135 -0.13538,0.8511 0.59305,0.46127 0.47641,-0.25499 1.3447,-0.46127 1.91095,-0.46127 0.79133,0 0.97693,0.21005 0.79074,0.92253 -0.1651,0.63142 0.0493,0.99262 0.65895,1.18611 0.61085,0.19387 0.85663,0.76908 0.85663,1.71327 0,1.04928 0.23619,1.38379 0.92253,1.38379 2.56193,0 3.15516,-1.68822 1.3179,-3.69011 -0.84487,-0.92062 -0.93628,-1.25831 -0.39537,-1.44969 0.37376,-0.13223 1.27644,-0.81463 1.97685,-1.58148 0.93824,-1.02714 1.52016,-1.34883 2.24042,-1.12021 2.02803,0.64367 6.72128,-3.20312 6.72128,-5.53517 0,-2.26746 1.20956,-0.68886 1.84506,2.37221 0.47195,2.2732 0.50689,2.67376 -0.13179,3.03117 -0.5884,0.32927 -0.64647,0.7062 -0.26358,1.71327 0.26457,0.69572 0.33243,1.64546 0.19758,2.17453 -0.28275,1.10994 -3.49599,2.92187 -5.99644,3.36064 -2.12141,0.37226 -4.67853,1.88824 -4.67853,2.76758 0,0.9055 1.25712,1.85379 1.91095,1.44969 0.29519,-0.18248 0.44756,-0.83146 0.32947,-1.44969 -0.14128,-0.73904 0.039,-1.12021 0.46127,-1.12021 0.35322,0 0.65895,0.20179 0.65895,0.46126 0,0.72834 0.9888,0.56468 1.97684,-0.32947 0.77006,-0.69693 0.92757,-0.72681 1.3179,-0.13179 0.38647,0.58907 0.55995,0.60044 1.12021,-0.13179 0.36035,-0.47093 0.96964,-0.79555 1.3179,-0.72485 0.34824,0.0707 1.1657,-0.0179 1.84506,-0.19768 1.05936,-0.28054 1.29228,-0.64243 1.51558,-2.5699 0.14318,-1.23607 0.0411,-2.4552 -0.19758,-2.70169 -0.73718,-0.76095 -0.48984,-1.71327 0.46126,-1.71327 1.23254,0 2.43812,-0.47741 2.43812,-0.98842 0,-0.23172 -0.39544,-0.39537 -0.85664,-0.39537 -0.4612,0 -1.37375,-0.36833 -1.97684,-0.79074 -0.87306,-0.61152 -0.90313,-0.82997 -0.39537,-1.18611 0.49645,-0.34816 0.45902,-0.53858 0,-0.72484 -0.73324,-0.29747 -0.78764,-1.58148 -0.0658,-1.58148 0.36304,0 0.31526,-0.15711 0.13179,-0.39537 -7.59164,-4.28463 -16.35421,-6.72127 -25.69901,-6.72127 z m 2.89937,31.168268 c -0.68876,0 -1.99797,2.26619 -1.64737,2.83348 0.49403,0.79936 0.9981,0.55551 1.58148,-0.72484 0.6686,-1.46729 0.67396,-2.10864 0.0658,-2.10864 z m -0.46126,8.76402 c -0.90001,0 -1.25938,0.28612 -1.38379,1.18611 -0.0898,0.64867 -0.39364,1.45615 -0.65895,1.77917 -0.33819,0.4118 -0.21848,0.94284 0.32947,1.77916 0.42987,0.65604 0.76554,1.39503 0.72485,1.71326 -0.14719,1.15035 0.0105,1.77917 0.52715,1.77917 0.28992,0 0.45494,-0.37622 0.32948,-0.85664 -0.18177,-0.69473 0.0443,-0.89187 1.12021,-0.92253 0.99317,-0.0282 1.3179,0.17892 1.3179,0.79074 0,0.45832 0.15667,1.01312 0.32947,1.18611 0.4921,0.49211 0.66528,0.36302 0.65895,-0.52716 -0.0105,-1.29082 -0.74707,-2.11338 -1.91095,-2.17453 -0.74595,-0.0392 -1.12991,-0.45082 -1.252,-1.252 -0.0959,-0.62998 0.0253,-1.23535 0.26358,-1.3838 0.23834,-0.1484 0.50154,-0.93488 0.59305,-1.71326 0.14571,-1.23938 0.0445,-1.3838 -0.98842,-1.3838 z m 4.54675,7.7756 c -0.43228,0 -0.5434,0.44069 -0.39537,1.44969 0.15224,1.03779 0.30651,1.30881 0.59305,0.85663 0.61505,-0.97052 0.50533,-2.30632 -0.19758,-2.30632 z m -3.29475,1.58148 c -0.11935,-0.0238 -0.26151,0.0239 -0.32947,0.0659 -0.75418,0.46611 -0.59647,1.18611 0.26358,1.18611 0.58681,0 0.66641,0.17356 0.26358,0.65894 -0.28901,0.34822 -0.36849,0.75188 -0.19758,0.92253 0.41084,0.41084 0.54149,0.39416 1.64737,-0.19768 0.92402,-0.49451 0.89971,-0.54997 -0.26358,-1.71327 -0.49003,-0.49001 -1.02556,-0.85109 -1.38379,-0.92253 z m 4.48085,2.83348 c -0.25946,0.0114 -0.53266,0.26232 -0.85663,0.72484 -0.5474,0.78151 -1.06921,0.98547 -1.84506,0.79074 -0.65597,-0.16464 -1.29038,0.0311 -1.64737,0.46126 -0.49175,0.59249 -0.38369,0.65895 0.65895,0.65895 0.88514,0 1.252,0.23783 1.252,0.85664 0,0.47567 0.15667,1.01311 0.32948,1.1861 0.55531,0.55534 1.42183,0.36411 1.71326,-0.39536 0.15562,-0.40568 0.52944,-0.62271 0.79074,-0.46127 0.50846,0.31421 0.6095,-0.22495 0.46127,-2.10863 -0.0896,-1.13841 -0.4242,-1.73232 -0.85664,-1.71327 z m -54.0338,1.44969 -0.32947,1.91095 c -0.15836,1.03786 -0.15752,2.04582 -0.0658,2.24042 0.26305,0.55754 0.46291,0.45482 0.98842,-0.52716 0.34487,-0.64431 0.32867,-1.30269 -0.0658,-2.24042 l -0.52716,-1.38379 z m 41.64557,2.24042 c -0.357,0.0918 -0.91203,0.56341 -1.77917,1.44969 -4.25183,4.34571 -7.37031,6.68895 -8.17096,6.19412 -0.995,-0.61494 -1.79462,1.14509 -1.252,2.70169 0.26402,0.75729 0.64317,1.38379 0.85663,1.38379 0.21348,0 0.557,0.62021 0.72484,1.38379 0.19568,0.89073 0.51942,1.27499 0.92253,1.12022 0.34559,-0.13264 0.76185,0.004 0.92253,0.26358 0.16068,0.25999 1.01219,0.3436 1.91095,0.19757 1.20325,-0.19526 1.70852,-0.066 1.91095,0.46127 0.15119,0.39389 0.76879,0.69543 1.3838,0.65895 0.87809,-0.0519 1.21349,-0.45513 1.44968,-1.71327 0.42418,-2.25926 1.57547,-3.91156 2.50401,-3.55832 0.60572,0.23041 0.67025,0.14655 0.19758,-0.32948 -0.79007,-0.79582 -0.78958,-1.3179 0.0658,-1.3179 0.57173,0 0.56507,-0.33046 -0.19758,-1.58147 -1.22571,-2.01031 -1.2151,-2.38297 0.32947,-3.82191 1.29312,-1.20466 1.30603,-1.23975 0.26358,-1.51558 -0.57519,-0.1522 -1.16207,-0.69519 -1.3179,-1.18611 -0.19462,-0.61308 -0.36785,-0.88259 -0.72484,-0.79073 z m -27.41227,2.6358 c -0.23387,0.005 -0.39537,0.14754 -0.39537,0.39537 0,0.29436 1.30969,2.03407 3.42653,4.61264 0.69849,0.85085 1.69515,2.63619 2.24043,4.01959 1.22648,3.11158 2.40785,4.72895 4.34906,5.79874 2.04622,1.12758 2.24042,1.07195 2.24042,-0.79073 0,-0.8928 0.20117,-1.75028 0.46127,-1.91096 0.31163,-0.19251 0.34493,-0.60751 0,-1.252 -0.42582,-0.79567 -0.61688,-0.86076 -0.98843,-0.32947 -0.35802,0.51212 -0.53506,0.53452 -0.72484,0.0658 -0.13305,-0.32897 -0.55649,-0.88597 -0.92253,-1.252 -0.36601,-0.36604 -0.65895,-1.12201 -0.65895,-1.64738 0,-0.52532 -0.55573,-1.31298 -1.252,-1.77916 -0.69625,-0.46618 -2.40296,-1.99846 -3.8219,-3.36064 -1.6459,-1.58012 -3.25211,-2.58504 -3.95369,-2.5699 z m 43.02935,5.1398 c -0.22687,-0.0105 -0.4481,0.16194 -0.59305,0.52716 -0.42289,1.06574 -0.46523,4.08151 -0.0658,4.48085 0.55632,0.55647 0.69585,0.35372 0.39537,-0.59306 -0.19758,-0.6223 -0.0169,-1.06865 0.59305,-1.44968 0.59942,-0.37431 0.82385,-0.92774 0.65895,-1.58148 -0.21491,-0.85254 -0.6103,-1.36627 -0.98842,-1.38379 z m -9.35707,0.72484 c -1.28207,0.0458 -1.70239,0.32269 -2.30632,0.98842 -1.11756,1.23185 -1.85094,5.37947 -0.98842,5.66696 0.31964,0.10649 0.52768,0.84127 0.46126,1.71327 -0.18219,2.39111 1.00542,1.55965 1.3179,-0.92253 l 0.26358,-2.10863 0.59305,1.31789 c 0.30961,0.73041 0.59305,1.50095 0.59305,1.71327 0,0.44798 1.96228,1.06889 2.30632,0.72484 0.12737,-0.12736 -0.15266,-0.83588 -0.59305,-1.58147 -0.98893,-1.67437 -0.99511,-3.05074 -0.0658,-3.82191 1.21434,-1.00782 0.73043,-1.47739 -0.72484,-0.72484 -1.53264,0.79255 -1.98817,0.43489 -1.58148,-1.12021 0.23338,-0.89255 0.62302,-0.98843 2.83348,-0.98843 3.57382,0 3.11397,-0.67518 -0.52716,-0.79073 -0.64159,-0.0211 -1.15412,-0.0812 -1.58148,-0.0658 z m 15.94656,2.70169 c -1.2869,0 -2.37222,0.26769 -2.37222,0.52716 0,0.25947 0.33566,0.46126 0.72485,0.46126 0.38919,0 0.72484,0.30789 0.72484,0.72485 0,0.47339 0.22714,0.6929 0.65895,0.52716 0.38088,-0.14613 0.83513,-0.0504 0.98842,0.19758 0.1533,0.2481 0.0211,0.39537 -0.26358,0.39537 -0.37242,0 -0.36937,0.29824 0,0.98842 0.28161,0.52612 0.7099,0.85621 0.92253,0.72484 0.21262,-0.13137 1.6565,0.19379 3.22885,0.72485 3.28214,1.10838 4.8692,2.8172 3.95369,4.28316 -0.77715,1.24448 -0.70447,1.3179 1.05432,1.3179 0.87635,0 1.85153,0.33565 2.17453,0.72484 0.94963,1.14423 3.05318,0.84717 3.9537,-0.52715 0.99854,-1.524 2.31572,-1.20859 4.28316,0.98842 0.77839,0.86924 1.98712,1.66614 2.6358,1.77916 0.64868,0.11323 1.29894,0.22815 1.51558,0.26358 0.21664,0.0354 -0.43971,-0.88637 -1.51558,-2.10864 -1.26609,-1.43836 -1.92656,-2.53323 -1.77916,-3.09706 0.1554,-0.59419 -0.0776,-1.09469 -0.85664,-1.44968 -0.62824,-0.28623 -1.18189,-0.70574 -1.1861,-0.98843 -0.0105,-0.84044 -2.84995,-2.41002 -6.12823,-3.36063 -1.68653,-0.48904 -3.46071,-1.12174 -3.95369,-1.44969 -0.77239,-0.51388 -1.11539,-0.40819 -2.5699,0.79074 -0.92831,0.76522 -1.95142,1.38379 -2.24043,1.38379 -0.28899,0 -0.74338,-0.87312 -1.05432,-1.91095 -0.56083,-1.87228 -0.57831,-1.91095 -2.89937,-1.91095 z m -4.81033,2.96527 c -0.76482,-0.004 -1.31789,0.25082 -1.31789,0.72484 0,0.17945 0.73924,0.32948 1.64737,0.32948 1.90414,0 2.14961,-0.56469 0.46126,-0.98842 -0.28483,-0.0715 -0.5358,-0.0643 -0.79074,-0.0658 z m -3.55832,0.59305 c -0.13327,0.0377 -0.24798,0.13179 -0.32947,0.26358 -0.163,0.26371 -0.008,0.46127 0.39537,0.46127 0.82863,0 0.9838,-0.32045 0.32947,-0.72485 -0.12083,-0.0746 -0.26206,-0.0377 -0.39537,0 z m -28.86196,4.61265 c -0.34206,0.019 -0.52716,0.11218 -0.52716,0.26358 0,0.57818 1.92751,1.3448 4.48086,1.77916 1.03785,0.17649 2.71815,0.45715 3.756,0.65895 2.89196,0.56163 5.34145,0.55615 4.48086,0 -0.38922,-0.25152 -1.12947,-0.45705 -1.71327,-0.46127 -1.13936,-0.008 -1.49694,-0.72891 -0.52716,-1.12021 0.55567,-0.22423 0.0926,-0.26145 -4.54675,-0.52716 -1.03785,-0.0595 -2.78506,-0.26326 -3.88779,-0.46126 -0.63673,-0.11429 -1.17352,-0.15161 -1.51559,-0.13179 z m 15.74888,3.03116 c -0.87129,0.0637 -1.79316,0.24656 -2.04274,0.46126 -0.10818,0.093 0.63217,0.13179 1.71326,0.13179 1.0811,0 1.97685,-0.15224 1.97685,-0.39536 0,-0.19653 -0.77608,-0.26137 -1.64737,-0.19758 z m 12.25645,0.13179 c -0.49028,0.001 -1.52792,0.54808 -2.30632,1.18611 -1.85307,1.51908 -0.783,1.51516 1.44968,0 1.26107,-0.85579 1.50346,-1.1879 0.85664,-1.18611 z m 23.39268,3.55832 c -0.41319,-0.25537 -1.91095,4.90575 -1.91095,6.58949 0,0.65256 -0.41057,1.59666 -0.92253,2.10864 -0.9267,0.92666 -0.94935,0.94707 -3.75601,-0.72485 -3.78871,-2.25693 -4.06237,-2.60699 -2.89937,-4.08548 1.30065,-1.65351 1.23005,-2.24042 -0.39537,-2.24042 -0.76152,0 -1.95216,-0.20138 -2.6358,-0.46127 -0.95376,-0.36262 -1.43324,-0.34594 -1.97684,0.19758 -0.38966,0.38966 -0.98986,0.72484 -1.3838,0.72484 -0.91696,0 -2.48292,1.84911 -2.504,2.96527 -0.0127,0.66707 -0.29458,0.84063 -1.12022,0.59306 -0.58377,-0.17502 -1.3479,-0.64164 -1.71326,-0.98843 -0.55447,-0.52557 -0.82456,-0.53097 -1.84506,0 -1.37483,0.71536 -3.36064,2.86347 -3.36064,3.62422 0,0.27499 -0.40102,0.34234 -0.85663,0.19758 -0.6218,-0.19737 -1.06773,0.23716 -1.77916,1.71327 -0.8951,1.8572 -1.09323,1.99637 -4.08549,2.70169 -1.74259,0.41076 -3.69447,1.20199 -4.28316,1.71327 -0.58869,0.51128 -1.22695,0.86032 -1.44969,0.79073 -0.22267,-0.0696 -0.27982,0.66501 -0.13179,1.64738 0.5399,3.5854 0.77497,4.7777 1.252,5.33748 0.0105,0.0127 -0.0105,0.0538 0,0.0658 1.84449,0.19632 3.70418,0.26358 5.60107,0.26358 13.75976,0 26.24326,-5.2989 35.58323,-13.96971 0.0559,-0.41418 -0.0367,-0.93438 -0.26358,-1.77916 -0.31387,-1.16848 -0.83375,-2.04781 -1.31789,-2.17454 -0.55894,-0.14612 -0.96234,-0.88003 -1.18611,-2.37221 -0.18008,-1.20036 -0.46938,-2.32087 -0.65895,-2.43811 z"
       style="fill:#ffffff;fill-opacity:1" />
  </g>
</svg>
